<?xml version="1.0" encoding="utf-8"?>
<!-- Generator: Adobe Illustrator 24.0.1, SVG Export Plug-In . SVG Version: 6.00 Build 0)  -->
<svg version="1.1" id="Layer_1" xmlns="http://www.w3.org/2000/svg" xmlns:xlink="http://www.w3.org/1999/xlink" x="0px" y="0px"
	 viewBox="0 0 98 40" style="enable-background:new 0 0 98 40;" xml:space="preserve">
<style type="text/css">
	.st0{fill:#2A55E5;}
	.st1{fill:url(#SVGID_1_);}
	.st2{fill:url(#SVGID_2_);}
	.st3{fill:url(#SVGID_3_);}
	.st4{fill:url(#SVGID_4_);}
	.st5{fill:#9E9E9E;}
	.st6{fill:#FFC200;}
</style>
<path class="st0" d="M21.8,4.8L22,3.2c0-0.3,0-0.5-0.2-0.7c-0.2-0.2-0.4-0.3-0.7-0.3h-9.7c-0.4,0-0.8,0.3-0.9,0.7L8,19.4
	c0,0.3,0,0.5,0.2,0.7c0.2,0.2,0.4,0.3,0.7,0.3h2.2c0.4,0,0.8-0.3,0.9-0.7l1-6.4h5.5c0.4,0,0.8-0.3,0.8-0.7l0.2-1.4
	c0-0.3,0-0.5-0.2-0.7c-0.2-0.2-0.4-0.3-0.7-0.3h-5.2l0.7-4.6h6.7C21.3,5.5,21.7,5.2,21.8,4.8z M72.5,10.3L72.5,10.3
	c-0.7-0.2-1.4-0.3-2.1-0.3c-1.2,0-2.2,0.5-2.8,1.5c-0.6,1-0.9,2.1-0.9,3.3c0,0.8,0.1,1.4,0.4,1.9c0.3,0.5,0.7,0.8,1.1,0.8
	c0.5,0,1.2-0.4,1.9-1c0.7-0.7,1.3-1.5,1.9-2.4L72.5,10.3z M76.6,8.4l-1.8,11.3c-0.1,0.4-0.4,0.7-0.9,0.7h-1.3
	c-0.2,0-0.5-0.1-0.6-0.3c-0.2-0.2-0.3-0.4-0.2-0.6l0.1-1.4l-0.2,0.2c0,0-0.5,0.6-1.1,1c-0.9,0.7-1.8,1-1.9,1.1
	c-0.5,0.2-1.1,0.3-1.7,0.3c-1.3,0-2.3-0.5-3-1.4c-0.7-1-1.1-2.2-1.1-3.8c0-0.8,0.1-1.6,0.2-2.4c0.2-0.8,0.4-1.5,0.8-2.3
	c0.4-0.8,0.9-1.4,1.5-2c0.6-0.6,1.4-1,2.3-1.4c0.9-0.3,2-0.5,3.2-0.5c1.4,0,3.1,0.2,5,0.6C76.3,7.5,76.6,7.9,76.6,8.4z M86,7
	c-0.9,0.2-1.8,0.8-2.3,1.2c-0.7,0.5-1.6,1.5-1.6,1.5l-0.2,0.2L82,8c0-0.2-0.1-0.5-0.2-0.6c-0.2-0.2-0.4-0.3-0.6-0.3h-1.3
	c-0.4,0-0.8,0.3-0.9,0.7l-1.8,11.5c0,0.3,0,0.5,0.2,0.7c0.2,0.2,0.4,0.3,0.7,0.3h2.1c0.4,0,0.8-0.3,0.9-0.7l1-6.1
	c0.5-0.8,1.3-1.4,2.1-2c0.6-0.4,1.3-0.7,2-0.8c0.4-0.1,0.6-0.3,0.7-0.7L87.1,8c0.1-0.3,0-0.6-0.3-0.8C86.6,7,86.3,6.9,86,7z
	 M44.8,12.7c0-0.8-0.1-1.4-0.4-1.9c-0.3-0.5-0.7-0.8-1.1-0.8c-0.5,0-1.2,0.3-1.9,1c-0.7,0.7-1.3,1.5-1.9,2.4l-0.6,3.7l0.1,0
	c0.6,0.2,1.3,0.3,2.1,0.3c1.3,0,2.2-0.5,2.8-1.5C44.5,15.1,44.8,13.9,44.8,12.7z M47.6,8.3c0.7,1,1.1,2.2,1.1,3.8c0,1-0.1,2-0.4,3
	C48,16,47.5,16.9,47,17.8c-0.6,0.9-1.4,1.6-2.5,2.1c-1.1,0.5-2.4,0.8-3.8,0.8c-0.6,0-1.3-0.1-2.2-0.2l-0.1,0l-0.2,1.6c0,0,0,0,0,0.1
	l-0.5,2.7c-0.1,0.4-0.4,0.7-0.8,0.7h-2c-0.3,0-0.5-0.1-0.7-0.3C34,25.1,34,24.8,34,24.6l2.7-16.7c0.1-0.4,0.4-0.7,0.9-0.7h1.3
	c0.2,0,0.5,0.1,0.6,0.3c0.2,0.2,0.3,0.4,0.2,0.6l-0.1,1.4l0.2-0.2c0,0,1.3-1.5,3.2-2.1c0.5-0.2,1-0.3,1.6-0.3
	C45.9,6.8,46.9,7.3,47.6,8.3z M95.1,7.1h-1.6l0.4-2.3c0-0.3,0-0.5-0.2-0.7c-0.2-0.2-0.4-0.3-0.7-0.3h-1.6c-0.4,0-0.7,0.3-0.8,0.6
	l-0.8,2.7h-0.9c-0.4,0-0.8,0.3-0.8,0.7l-0.2,1.2c0,0.3,0,0.5,0.2,0.7c0.2,0.2,0.4,0.3,0.7,0.3h0.5l-1,6.1c-0.1,0.4-0.1,0.8-0.1,1.2
	c0,1.1,0.3,1.9,0.9,2.4c0.6,0.5,1.5,0.8,2.7,0.8c0.7,0,1.7-0.3,1.8-0.3c0.1,0,0.3-0.1,0.3-0.1c0,0,0.1,0,0.1,0
	c0.3-0.1,0.4-0.4,0.4-0.7l0.2-1.3c0-0.3-0.1-0.5-0.3-0.7c-0.1-0.1-0.1-0.1-0.2-0.1c0,0-0.1,0-0.1-0.1c0,0-0.1,0-0.4,0
	c-0.1,0-0.2,0-0.2,0c-0.1,0-0.2,0-0.3,0c-0.1,0-0.4-0.1-0.6-0.2c-0.1-0.1-0.3-0.3-0.3-1c0-0.1,0-0.2,0-0.3l0.9-5.7h1.8
	c0.4,0,0.8-0.3,0.8-0.7L96,8.2c0.1-0.3,0-0.5-0.2-0.7C95.6,7.2,95.4,7.1,95.1,7.1z M62.5,7.5c-0.2-0.2-0.4-0.3-0.7-0.3h-2.1
	c-0.4,0-0.7,0.3-0.8,0.6c-0.2,0.6-0.5,1.3-1,2.1C57.1,11,56.5,11.7,56,12l-0.1,0c-0.2,0.1-0.4,0.2-1.4,0.4l-0.1,0l1.5-9.3
	c0-0.3,0-0.5-0.2-0.7c-0.2-0.2-0.4-0.3-0.7-0.3H53c-0.4,0-0.8,0.3-0.9,0.7l-2.6,16.5c0,0.3,0,0.5,0.2,0.7c0.2,0.2,0.4,0.3,0.7,0.3
	h2.1c0.4,0,0.8-0.3,0.9-0.7l0.7-4.3h1.3l1.8,4.5c0.1,0.3,0.4,0.5,0.8,0.5H60c0.5,0,0.9-0.4,0.9-0.9c0-0.1,0-0.2-0.1-0.3l-2-5.2l0,0
	c0.8-0.8,1.7-1.8,2.6-3.2c0.6-0.9,1-1.7,1.2-2.5C62.7,8,62.6,7.7,62.5,7.5z M32.7,6c0.9,0,1.5-0.2,1.9-0.7c0.4-0.4,0.6-1,0.6-1.7
	c0-0.5-0.2-0.9-0.5-1.2C34.5,2.1,34,2,33.4,2c-0.9,0-1.5,0.2-1.9,0.7c-0.4,0.4-0.6,1-0.6,1.7c0,0.5,0.2,0.9,0.5,1.2
	C31.7,5.9,32.1,6,32.7,6z M33.4,7.1h-2c-0.4,0-0.8,0.3-0.9,0.7l-1.8,11.5c0,0.3,0,0.5,0.2,0.7c0.2,0.2,0.4,0.3,0.7,0.3h2
	c0.4,0,0.8-0.3,0.9-0.7l1.8-11.5c0-0.3,0-0.5-0.2-0.7C33.9,7.2,33.7,7.1,33.4,7.1z M27.6,2.5c0.2,0.2,0.2,0.4,0.2,0.7l-2,12.8
	c0,0.2,0,0.4,0,0.4c0,0.4,0.1,0.7,0.2,0.9c0.2,0.1,0.5,0.2,0.5,0.2c0.2,0,0.4,0.1,0.5,0.3c0.2,0.2,0.3,0.4,0.2,0.7l-0.1,1.1
	c0,0.2-0.1,0.4-0.3,0.6c-0.1,0.1-0.3,0.2-0.5,0.3c-0.2,0.1-0.8,0.3-1.3,0.3c-1.1,0-1.9-0.3-2.5-0.7c-0.6-0.5-0.8-1.2-0.8-2.1
	c0-0.3,0-0.5,0.1-0.8c0-0.1,2.2-13.9,2.2-14c0.1-0.4,0.4-0.7,0.9-0.7h2.1C27.2,2.2,27.4,2.3,27.6,2.5z"/>
<linearGradient id="SVGID_1_" gradientUnits="userSpaceOnUse" x1="83.4559" y1="15.026" x2="88.6019" y2="9.8984" gradientTransform="matrix(1 0 0 -1 0 42)">
	<stop  offset="4.110000e-02" style="stop-color:#FFF300"/>
	<stop  offset="0.2727" style="stop-color:#FFF300"/>
	<stop  offset="0.5022" style="stop-color:#FFE500"/>
	<stop  offset="0.8126" style="stop-color:#F2A930"/>
</linearGradient>
<path class="st1" d="M86.7,29.5c0,0,1.3,0.6,1.9,0.9c0.6,0.3,0.7,1.3,0,1.6c-0.7,0.3-0.9,0.4-0.9,0.4s0.1-0.3,0.1-0.5
	c0-0.5-1.5-0.9-2.4-1.1c0,0-0.7-2.3-1-2.9c-0.3-0.6-1-0.9-1-0.9l1.6,0c0,0,0.5,0,0.8,0.6C86,28.2,86.7,29.5,86.7,29.5z"/>
<linearGradient id="SVGID_2_" gradientUnits="userSpaceOnUse" x1="83.9986" y1="5.6115" x2="89.1537" y2="10.7479" gradientTransform="matrix(1 0 0 -1 0 42)">
	<stop  offset="0.1874" style="stop-color:#F2A930"/>
	<stop  offset="0.4978" style="stop-color:#FFE500"/>
	<stop  offset="0.7273" style="stop-color:#FFF300"/>
	<stop  offset="0.9589" style="stop-color:#FFF300"/>
</linearGradient>
<path class="st2" d="M86.6,34.5c0,0-0.6,1.3-0.9,1.9c-0.3,0.6-1.3,0.7-1.6,0c-0.3-0.7-0.4-0.8-0.4-0.8s0.2,0,0.5,0
	c0.5,0,0.9-1.5,1.1-2.4c0,0,2.2-0.7,2.9-1c0.6-0.3,0.9-1,0.9-1l0,1.8c0,0,0,0.3-0.5,0.5C88,33.8,86.6,34.5,86.6,34.5z"/>
<linearGradient id="SVGID_3_" gradientUnits="userSpaceOnUse" x1="79.6916" y1="10.1973" x2="84.8286" y2="5.0787" gradientTransform="matrix(1 0 0 -1 0 42)">
	<stop  offset="0.1874" style="stop-color:#F2A930"/>
	<stop  offset="0.4978" style="stop-color:#FFE500"/>
	<stop  offset="0.7273" style="stop-color:#FFF300"/>
	<stop  offset="0.9589" style="stop-color:#FFF300"/>
</linearGradient>
<path class="st3" d="M81.6,34.4c0,0-1.3-0.6-1.9-0.9c-0.6-0.3-0.7-1.3,0-1.6c0.7-0.3,1-0.4,1-0.4s-0.2,0.3-0.1,0.6
	c0,0.5,1.4,0.8,2.3,1c0,0,0.7,2.2,1,2.9c0.4,0.8,1,0.9,1,0.9l-1.8,0c0,0-0.3,0-0.5-0.6C82.3,35.7,81.6,34.4,81.6,34.4z"/>
<linearGradient id="SVGID_4_" gradientUnits="userSpaceOnUse" x1="79.172" y1="9.3691" x2="84.3147" y2="14.4929" gradientTransform="matrix(1 0 0 -1 0 42)">
	<stop  offset="4.110000e-02" style="stop-color:#FFF300"/>
	<stop  offset="0.2727" style="stop-color:#FFF300"/>
	<stop  offset="0.5022" style="stop-color:#FFE500"/>
	<stop  offset="0.8126" style="stop-color:#F2A930"/>
</linearGradient>
<path class="st4" d="M81.7,29.4c0,0,0.6-1.3,0.9-1.9c0.3-0.6,1.2-0.7,1.6,0c0.3,0.7,0.4,0.8,0.4,0.8s-0.3,0-0.5,0
	c-0.5,0-0.9,1.4-1.1,2.3c0,0-2.2,0.7-2.9,1c-0.9,0.4-0.9,1-0.9,1l0-1.8c0,0,0-0.3,0.5-0.5S81.7,29.4,81.7,29.4z"/>
<path class="st5" d="M12.9,35.6H7l1.3-8.2h5.9l-0.2,1.6h-4l-0.3,1.7h3.5l-0.2,1.5H9.4l-0.3,1.8h4L12.9,35.6z"/>
<path class="st5" d="M19.8,35.6h-2l-0.8-1.7l-1.5,1.7h-1.9l2.6-3l-1.5-3h2l0.8,1.8l1.5-1.8h1.9l-2.6,3L19.8,35.6z"/>
<path class="st5" d="M25.1,29.4c0.6,0,1.1,0.2,1.4,0.7c0.3,0.4,0.5,1,0.5,1.7c0,0.5-0.1,0.9-0.2,1.4c-0.1,0.4-0.3,0.8-0.6,1.2
	c-0.3,0.4-0.7,0.7-1.2,1c-0.5,0.2-1.1,0.4-1.8,0.4c-0.3,0-0.6,0-1-0.1l-0.1,0.7L22,38h-1.8l1.3-8.4h1.4l0,1.3
	C23.5,29.9,24.2,29.4,25.1,29.4z M24.5,31c-0.2,0-0.5,0.2-0.8,0.5c-0.3,0.3-0.6,0.7-0.8,1.1l-0.3,1.6c0.3,0.1,0.6,0.1,0.9,0.1
	c0.6,0,1-0.2,1.2-0.7c0.3-0.4,0.4-0.9,0.4-1.5c0-0.3-0.1-0.6-0.2-0.8C24.9,31.1,24.7,31,24.5,31z"/>
<path class="st5" d="M30.7,34.2l-0.1,1.4c-0.4,0.2-0.9,0.3-1.3,0.3c-0.5,0-0.9-0.1-1.2-0.3c-0.3-0.2-0.4-0.6-0.4-1
	c0-0.1,0-0.2,0-0.4l1.1-6.8h1.8l-1,6.4c0,0.1,0,0.2,0,0.2c0,0.2,0,0.3,0.1,0.4c0.1,0.1,0.2,0.1,0.4,0.1
	C30.3,34.3,30.5,34.2,30.7,34.2z"/>
<path class="st5" d="M34.1,35.8c-0.8,0-1.5-0.2-1.9-0.7c-0.5-0.4-0.7-1-0.7-1.8c0-1.1,0.3-2.1,1-2.8c0.7-0.7,1.5-1.1,2.6-1.1
	c0.9,0,1.5,0.2,2,0.6c0.5,0.4,0.7,1,0.7,1.8c0,1.2-0.3,2.1-1,2.8C36.2,35.4,35.3,35.8,34.1,35.8z M34.3,34.3c0.5,0,0.9-0.2,1.2-0.6
	c0.3-0.4,0.5-0.9,0.5-1.6c0-0.8-0.3-1.2-1-1.2c-0.5,0-0.9,0.2-1.2,0.6c-0.3,0.4-0.5,0.9-0.5,1.6c0,0.4,0.1,0.7,0.3,0.9
	C33.7,34.2,34,34.3,34.3,34.3z"/>
<path class="st5" d="M38.3,35.6l1-6.1h1.4L40.7,31c0.6-1.1,1.4-1.6,2.3-1.6h0.1l-0.3,1.8c-0.4,0-0.8,0.1-1.2,0.4
	c-0.4,0.2-0.7,0.5-0.9,0.9l-0.5,3.1H38.3z"/>
<path class="st5" d="M49.1,31.3c-0.1,1.4-1.1,2.1-3.2,2.1c-0.3,0-0.6,0-0.9,0c0,0.4,0.2,0.6,0.4,0.8c0.2,0.2,0.6,0.2,1.1,0.2
	c0.6,0,1.2-0.1,1.9-0.3l-0.3,1.5c-0.6,0.2-1.3,0.3-2.1,0.3c-1,0-1.8-0.2-2.2-0.7c-0.4-0.4-0.6-1.1-0.6-1.9c0-1.1,0.3-2,0.9-2.7
	c0.6-0.7,1.5-1.1,2.6-1.1c0.8,0,1.4,0.2,1.8,0.5C48.9,30.3,49.1,30.7,49.1,31.3z M45.1,32.2c0.1,0,0.2,0,0.4,0
	c1.2,0,1.8-0.3,1.8-0.8c0-0.2-0.1-0.3-0.2-0.4c-0.1-0.1-0.3-0.2-0.5-0.2c-0.4,0-0.7,0.1-0.9,0.4C45.4,31.4,45.2,31.8,45.1,32.2z"/>
<path class="st6" d="M54.1,35.6h-1.9l1.3-8.2h3.3c1,0,1.7,0.2,2.2,0.6c0.4,0.4,0.6,0.9,0.6,1.6c0,0.3,0,0.7-0.1,1
	c-0.1,0.3-0.2,0.6-0.3,0.9c-0.2,0.3-0.4,0.6-0.6,0.8c-0.3,0.2-0.6,0.4-1.1,0.5C57.1,32.9,56.6,33,56,33h-1.5L54.1,35.6z M54.8,31.5
	h1.3c1.1,0,1.6-0.5,1.6-1.6c0-0.3-0.1-0.6-0.3-0.7c-0.2-0.2-0.5-0.3-1-0.3h-1.3L54.8,31.5z"/>
<path class="st6" d="M62.9,34.2l-0.1,1.4c-0.4,0.2-0.9,0.3-1.3,0.3c-0.5,0-0.9-0.1-1.2-0.3c-0.3-0.2-0.4-0.6-0.4-1
	c0-0.1,0-0.2,0-0.4l1.1-6.8h1.8l-1,6.4c0,0.1,0,0.2,0,0.2c0,0.2,0,0.3,0.1,0.4c0.1,0.1,0.2,0.1,0.4,0.1
	C62.5,34.3,62.7,34.2,62.9,34.2z"/>
<path class="st6" d="M70.1,29.6l-1,6.1h-1.4l0-1.3c-0.6,0.9-1.5,1.4-2.5,1.4c-0.5,0-0.9-0.2-1.2-0.5c-0.3-0.3-0.4-0.7-0.4-1.2
	c0-0.2,0-0.4,0-0.6l0.6-4h1.8l-0.6,3.6c0,0.1,0,0.2,0,0.4c0,0.5,0.2,0.7,0.5,0.7c0.3,0,0.5-0.1,0.9-0.4c0.3-0.3,0.6-0.6,0.9-1.1
	l0.5-3.1H70.1z"/>
<path class="st6" d="M70.4,35.5l0.3-1.5c0.1,0.1,0.3,0.1,0.7,0.2c0.4,0.1,0.8,0.1,1.2,0.1c0.8,0,1.2-0.2,1.2-0.6
	c0-0.1-0.1-0.3-0.3-0.3c-0.2-0.1-0.4-0.2-0.7-0.2c-0.3-0.1-0.6-0.1-0.8-0.2c-0.3-0.1-0.5-0.3-0.7-0.5c-0.2-0.2-0.3-0.5-0.3-0.9
	c0-0.7,0.3-1.2,0.8-1.6s1.3-0.6,2.3-0.6c0.3,0,0.7,0,1,0.1c0.3,0,0.6,0.1,0.7,0.1c0.2,0,0.3,0.1,0.3,0.1l-0.3,1.5
	c-0.1-0.1-0.4-0.2-0.7-0.2c-0.3-0.1-0.7-0.1-1-0.1c-0.8,0-1.2,0.2-1.2,0.6c0,0.1,0.1,0.2,0.3,0.3c0.2,0.1,0.4,0.1,0.7,0.2
	c0.3,0.1,0.6,0.1,0.8,0.2c0.3,0.1,0.5,0.3,0.7,0.5c0.2,0.2,0.3,0.5,0.3,0.9c0,0.7-0.3,1.3-0.8,1.7c-0.5,0.4-1.3,0.5-2.2,0.5
	c-0.4,0-0.7,0-1.1-0.1c-0.4,0-0.6-0.1-0.8-0.1C70.5,35.5,70.4,35.5,70.4,35.5z"/>
</svg>
